<svg xmlns="http://www.w3.org/2000/svg" viewBox="0 0 512 512" role="img" aria-label="ตราเทศบาลตำบลบ่อหลวง">
  <defs>
    <path id="topArc" d="M 90 256 A 166 166 0 0 1 422 256"/>
    <path id="bottomArc" d="M 422 256 A 166 166 0 0 1 90 256"/>
  </defs>
  <circle cx="256" cy="256" r="226" fill="#702082"/>
  <circle cx="256" cy="256" r="210" fill="none" stroke="#ffffff" stroke-width="5"/>
  <circle cx="256" cy="256" r="184" fill="#ffffff" stroke="#702082" stroke-width="6"/>
  <circle cx="256" cy="256" r="175" fill="none" stroke="#702082" stroke-width="3"/>
  <text font-family="Tahoma, sans-serif" font-size="34" font-weight="700" fill="#ffffff">
    <textPath href="#topArc" startOffset="50%" text-anchor="middle">เทศบาลตำบลบ่อหลวง</textPath>
  </text>
  <text font-family="Tahoma, sans-serif" font-size="27" font-weight="700" fill="#ffffff">
    <textPath href="#bottomArc" startOffset="50%" text-anchor="middle">อำเภอฮอด จังหวัดเชียงใหม่</textPath>
  </text>
  <g fill="#ffffff">
    <circle cx="78" cy="247" r="7"/><circle cx="70" cy="255" r="7"/><circle cx="86" cy="255" r="7"/><circle cx="78" cy="263" r="7"/>
    <circle cx="434" cy="247" r="7"/><circle cx="426" cy="255" r="7"/><circle cx="442" cy="255" r="7"/><circle cx="434" cy="263" r="7"/>
  </g>
  <g fill="#07912e">
    <path d="M174 178c-19 39-31 77-34 115-2 31 12 55 34 55 23 0 37-24 34-55-3-38-15-76-34-115z"/>
    <rect x="169" y="335" width="10" height="47" rx="4"/>
    <path d="M256 136c-25 48-40 97-43 145-3 40 15 70 43 70s46-30 43-70c-3-48-18-97-43-145z"/>
    <rect x="251" y="338" width="10" height="58" rx="4"/>
    <path d="M338 178c-19 39-31 77-34 115-2 31 12 55 34 55 23 0 37-24 34-55-3-38-15-76-34-115z"/>
    <rect x="333" y="335" width="10" height="47" rx="4"/>
  </g>
  <g fill="#ffffff">
    <circle cx="165" cy="235" r="8"/><circle cx="183" cy="263" r="7"/><circle cx="166" cy="292" r="6"/>
    <circle cx="248" cy="206" r="10"/><circle cx="270" cy="238" r="8"/><circle cx="245" cy="278" r="9"/><circle cx="266" cy="310" r="7"/>
    <circle cx="331" cy="236" r="8"/><circle cx="350" cy="268" r="7"/><circle cx="334" cy="298" r="6"/>
  </g>
  <g fill="#07912e">
    <ellipse cx="144" cy="395" rx="28" ry="6"/><ellipse cx="209" cy="403" rx="35" ry="6"/>
    <ellipse cx="281" cy="397" rx="32" ry="6"/><ellipse cx="356" cy="404" rx="31" ry="6"/><ellipse cx="259" cy="420" rx="48" ry="7"/>
  </g>
</svg>